# xmcd
#
# Track frame offsets:
#	150
#	21054
#	38489
#	62122
#	91851
#	126892
#	144854
#	174075
#	191145
#	214014
#
# Disc length: 3095 seconds
#
# Revision: 1
# Processed by: cddbd v1.5.2PL0 Copyright (c) Steve Scherf et al.
# Submitted via: audiograbber 1.83.01
#
DISCID=7c0c150a
DTITLE=The Charlie Daniels Band - Saratoga Showdown (FM)[CD1]
DYEAR=1979
DGENRE=Country
TTITLE0=Passing Lane
TTITLE1=Jitterbug
TTITLE2=Trudy
TTITLE3=Reflections
TTITLE4=Caballo Diablo
TTITLE5=Blind Man
TTITLE6=Funky Junky
TTITLE7=Amazing Grace
TTITLE8=Johnny B. Goode
TTITLE9=Long Haired Country Boy
EXTD=
EXTT0=
EXTT1=
EXTT2=
EXTT3=
EXTT4=
EXTT5=
EXTT6=
EXTT7=
EXTT8=
EXTT9=
PLAYORDER=
